<svg width="18" height="19" viewBox="0 0 18 19" fill="none" xmlns="http://www.w3.org/2000/svg">
<circle cx="8.98986" cy="9.739" r="8.98986" fill="white"/>
<path fill-rule="evenodd" clip-rule="evenodd" d="M8.27324 1.02463C6.48696 1.17585 4.8247 1.82514 3.44569 2.91027C0.0758213 5.56202 -0.964198 10.2102 0.959021 14.024C2.4947 17.0693 5.58928 18.9774 8.99243 18.9774C10.4077 18.9774 11.7668 18.6553 13.0289 18.0206C14.6168 17.2221 15.9356 15.9685 16.817 14.4196C17.4612 13.2876 17.8826 11.897 17.9573 10.6568C17.964 10.5452 17.9764 10.4497 17.9849 10.4445C17.9933 10.4392 18.0001 10.223 18 9.96405C17.9998 9.70505 17.993 9.50379 17.9847 9.51679C17.9759 9.5307 17.9647 9.45294 17.9575 9.328C17.8865 8.09123 17.4632 6.69102 16.817 5.55559C15.4266 3.11234 12.9758 1.45224 10.2061 1.07758C9.62855 0.999454 8.82919 0.977555 8.27324 1.02463ZM8.43506 2.14172C7.34214 2.23898 6.48543 2.46868 5.56722 2.91072C3.98934 3.67031 2.67515 4.9845 1.91556 6.56238C1.52184 7.38024 1.29001 8.17834 1.17654 9.10658C1.1311 9.47828 1.1311 10.4969 1.17654 10.8686C1.36058 12.3742 1.92156 13.7307 2.83123 14.8699C4.04795 16.3937 5.73963 17.4006 7.64395 17.7347C8.12471 17.819 8.34327 17.8354 8.99243 17.8354C9.64159 17.8354 9.86015 17.819 10.3409 17.7347C12.0346 17.4376 13.6 16.5866 14.7519 15.3369C15.9121 14.0782 16.5949 12.5942 16.808 10.8686C16.854 10.4961 16.854 9.47903 16.808 9.10658C16.6217 7.59797 16.0582 6.23418 15.1548 5.10609C13.8302 3.45191 12.011 2.43848 9.89142 2.17393C9.67665 2.14712 8.63365 2.12407 8.43506 2.14172ZM8.86179 6.06855C8.75116 6.09633 8.66293 6.14974 8.58122 6.23838C8.43461 6.39743 8.44515 6.27504 8.43506 7.9379L8.42607 9.42123L6.94274 9.43022C5.27342 9.44034 5.40132 9.4289 5.23699 9.58261C5.11573 9.69603 5.066 9.81381 5.066 9.98759C5.066 10.1614 5.11573 10.2791 5.23699 10.3926C5.40132 10.5463 5.27342 10.5348 6.94274 10.545L8.42607 10.5539L8.43506 12.0373C8.44518 13.7066 8.43375 13.5787 8.58746 13.743C8.70087 13.8643 8.81866 13.914 8.99243 13.914C9.1662 13.914 9.28399 13.8643 9.39741 13.743C9.55111 13.5787 9.53968 13.7066 9.5498 12.0373L9.55879 10.5539L11.0421 10.545C12.7114 10.5348 12.5835 10.5463 12.7479 10.3926C12.8691 10.2791 12.9189 10.1614 12.9189 9.98759C12.9189 9.81381 12.8691 9.69603 12.7479 9.58261C12.5835 9.4289 12.7114 9.44034 11.0421 9.43022L9.55879 9.42123L9.5498 7.9379C9.53968 6.26857 9.55111 6.39648 9.39741 6.23215C9.35028 6.18177 9.27671 6.12743 9.2262 6.10569C9.12269 6.06118 8.95802 6.04438 8.86179 6.06855ZM0.0104289 9.98759C0.0104289 10.2496 0.0129461 10.3569 0.0160027 10.2258C0.0190772 10.0948 0.0190772 9.88039 0.0160027 9.74936C0.0129461 9.61832 0.0104289 9.72553 0.0104289 9.98759Z" fill="#DE180F"/>
</svg>
