<svg width="48" height="48" viewBox="0 0 48 48" fill="none" xmlns="http://www.w3.org/2000/svg">
<g clip-path="url(#clip0_295_21143)">
<path fill-rule="evenodd" clip-rule="evenodd" d="M21.9995 42.22C21.6012 41.6159 21.1601 41.0411 20.6796 40.5C20.1847 39.9727 19.6498 39.4846 19.0795 39.04C18.1176 38.3187 17.0858 37.6956 15.9996 37.18C16.4199 36.8726 16.8145 36.5314 17.1796 36.16C18.2798 34.9308 19.0202 33.4223 19.3195 31.8C19.5182 30.656 19.4841 29.4837 19.2196 28.3532C18.955 27.2226 18.4652 26.157 17.7796 25.22C17.1296 24.2608 16.273 23.4594 15.2729 22.8745C14.2727 22.2896 13.1542 21.9361 11.9996 21.84C11.204 21.8139 10.4105 21.936 9.65955 22.2C5.53955 23.5 4.03955 25 2.95955 27.28C1.9219 29.5171 1.79284 32.0696 2.59955 34.4C3.21897 35.9588 4.38499 37.2386 5.87955 38C4.94933 38.5269 4.11159 39.2025 3.39955 40C3.01453 40.4492 2.67924 40.9387 2.39955 41.46C2.10463 41.9697 1.85694 42.5052 1.65955 43.06C1.19381 44.3506 0.891463 45.6943 0.75955 47.06C0.726275 47.1585 0.714727 47.263 0.725702 47.3664C0.736677 47.4698 0.769914 47.5696 0.823127 47.6589C0.87634 47.7483 0.948267 47.825 1.03396 47.8839C1.11966 47.9427 1.21709 47.9824 1.31955 48C1.41422 48.0235 1.51268 48.0275 1.60896 48.0118C1.70523 47.9961 1.79731 47.961 1.8796 47.9087C1.9619 47.8563 2.03269 47.7877 2.08769 47.7072C2.14269 47.6266 2.18075 47.5357 2.19955 47.44C2.74379 46.0489 3.41321 44.7101 4.19955 43.44L5.01955 42L5.57955 41C6.05597 40.1097 6.67787 39.3053 7.41955 38.62C9.18889 39.0898 11.0502 39.0898 12.8196 38.62C13.444 38.4699 14.0533 38.2623 14.6396 38L14.7596 38.12C15.3795 38.62 15.9596 39.16 16.5396 39.72C17.1196 40.28 17.7796 41.06 18.3995 41.72C19.0196 42.38 19.6996 42.98 20.2596 43.72L22.6796 46.86C22.8181 46.9968 23.0049 47.0735 23.1996 47.0735C23.3942 47.0735 23.581 46.9968 23.7196 46.86C23.7897 46.7928 23.8456 46.7121 23.8837 46.6227C23.9219 46.5333 23.9416 46.4372 23.9416 46.34C23.9416 46.2428 23.9219 46.1467 23.8837 46.0573C23.8456 45.9679 23.7897 45.8872 23.7196 45.82L21.9995 42.22ZM12.1396 36.22C10.6879 36.6293 9.15125 36.6293 7.69955 36.22C7.01067 36.0356 6.36898 35.7066 5.8172 35.2549C5.26543 34.8031 4.81624 34.2389 4.49955 33.6C3.75949 31.8067 3.75949 29.7933 4.49955 28C5.89955 24.42 8.07955 25 8.93955 24.2L9.73955 24C10.4523 23.6938 11.2244 23.5503 11.9996 23.58C12.8284 23.7317 13.6148 24.0604 14.3051 24.5436C14.9954 25.0268 15.5733 25.6531 15.9996 26.38C16.4759 27.0962 16.8044 27.9003 16.9658 28.7452C17.1272 29.59 17.1183 30.4586 16.9396 31.3C16.6645 32.4801 16.0774 33.5646 15.2396 34.44C14.3985 35.2778 13.3599 35.89 12.2196 36.22H12.1396Z" fill="#DE180F"/>
<path fill-rule="evenodd" clip-rule="evenodd" d="M47.1796 41.8C46.6926 40.5977 46.0897 39.4456 45.3796 38.36C45.071 37.8859 44.7159 37.4437 44.3196 37.04C43.9403 36.6245 43.5254 36.2431 43.0796 35.9C42.32 35.373 41.5171 34.9114 40.6796 34.52C41.1349 34.2109 41.5572 33.8557 41.9396 33.46C43.3256 32.0099 44.1541 30.1163 44.2785 28.1142C44.403 26.1122 43.8153 24.1306 42.6196 22.52C41.9779 21.5663 41.1314 20.7679 40.1418 20.1832C39.1522 19.5984 38.0445 19.242 36.8996 19.14C36.104 19.1139 35.3105 19.236 34.5596 19.5C30.4396 20.8 28.9396 22.3 27.8796 24.58C27.3461 25.6777 27.0345 26.8698 26.9624 28.0882C26.8903 29.3065 27.0593 30.5271 27.4596 31.68C27.975 32.9295 28.8616 33.9907 29.9996 34.72C28.9198 35.2373 27.9224 35.9112 27.0396 36.72C26.5774 37.1458 26.1495 37.6072 25.7596 38.1C25.3786 38.5849 25.0374 39.1 24.7396 39.64C24.0351 40.9007 23.4909 42.2444 23.1196 43.64C23.084 43.7306 23.0666 43.8273 23.0685 43.9246C23.0704 44.022 23.0914 44.118 23.1304 44.2071C23.1694 44.2963 23.2256 44.3769 23.2959 44.4443C23.3661 44.5117 23.4489 44.5646 23.5396 44.6C23.72 44.673 23.922 44.6719 24.1017 44.5971C24.2814 44.5222 24.4243 44.3795 24.4996 44.2C25.2547 42.8288 26.153 41.5417 27.1796 40.36L28.3396 38.92C28.5996 38.62 28.8396 38.26 29.0996 37.96C29.7678 37.083 30.5401 36.2905 31.3996 35.6C31.5996 35.6 31.7596 35.8 31.9596 35.86C33.856 36.4809 35.8921 36.5365 37.8196 36.02C38.3313 35.8664 38.8324 35.6794 39.3196 35.46C40.1943 36.2649 41.0287 37.1126 41.8196 38L43.1996 39.42C43.6596 39.9 44.1396 40.34 44.5996 40.86C45.0564 41.3755 45.4837 41.9163 45.8796 42.48C45.9254 42.5655 45.9881 42.6408 46.0637 42.7014C46.1394 42.7621 46.2266 42.8068 46.3199 42.833C46.4133 42.8591 46.511 42.8662 46.6072 42.8536C46.7034 42.8411 46.796 42.8092 46.8796 42.76C47.038 42.664 47.1559 42.5135 47.2111 42.3367C47.2663 42.1599 47.2551 41.9691 47.1796 41.8ZM37.0596 33.52C35.6079 33.9293 34.0713 33.9293 32.6196 33.52C31.9323 33.3321 31.2922 33.0018 30.7409 32.5504C30.1896 32.099 29.7394 31.5367 29.4196 30.9C28.6795 29.1067 28.6795 27.0933 29.4196 25.3C30.4196 22.74 31.4196 22.62 33.4196 21.66C33.5713 21.6547 33.715 21.59 33.8196 21.48L34.4996 21.22C35.1989 20.9752 35.9402 20.8732 36.6796 20.92C37.5375 21.0563 38.3555 21.3773 39.0772 21.8607C39.7989 22.3441 40.4071 22.9785 40.8596 23.72C41.3325 24.4376 41.6575 25.2424 41.8155 26.0873C41.9734 26.9321 41.9612 27.7999 41.7796 28.64C41.5088 29.8158 40.9208 30.8949 40.0796 31.76C39.2401 32.5954 38.2003 33.2014 37.0596 33.52Z" fill="#DE180F"/>
<path fill-rule="evenodd" clip-rule="evenodd" d="M10.6991 12.8C11.7211 14.2652 12.909 15.6074 14.2391 16.8C15.4189 17.9502 16.6751 19.0193 17.9991 20C19.3191 20.94 20.6591 21.82 21.9991 22.66C22.151 22.7499 22.3319 22.7772 22.5036 22.7362C22.6753 22.6951 22.8243 22.5889 22.9191 22.44C22.988 22.5107 23.0704 22.567 23.1615 22.6054C23.2525 22.6438 23.3503 22.6636 23.4491 22.6636C23.5479 22.6636 23.6457 22.6438 23.7367 22.6054C23.8277 22.567 23.9101 22.5107 23.9791 22.44C25.4591 21.16 27.0191 19.84 28.4991 18.44C29.5191 17.52 30.4991 16.56 31.4191 15.58C33.6323 13.3563 35.076 10.4829 35.5391 7.37999C35.6407 6.2404 35.454 5.09355 34.9961 4.04504C34.5383 2.99653 33.824 2.08006 32.9191 1.37999C32.4189 0.949961 31.8513 0.605338 31.2391 0.359992C30.6041 0.104353 29.9233 -0.0181778 29.2391 -8.19878e-06C28.3019 0.0247075 27.3756 0.207266 26.4991 0.539992C25.6207 0.859774 24.8174 1.35673 24.1391 1.99999C23.6724 2.37679 23.2314 2.78437 22.8191 3.21999C22.5191 2.81999 22.2591 2.37999 22.1391 2.27999C21.3427 1.68795 20.4676 1.21 19.5391 0.859992C18.5548 0.434388 17.4913 0.223044 16.4191 0.239992C15.3276 0.334738 14.2661 0.647256 13.2974 1.15909C12.3287 1.67092 11.4724 2.37168 10.7791 3.21999C10.0309 4.03604 9.48816 5.0188 9.19598 6.08667C8.90379 7.15454 8.87057 8.27671 9.09907 9.35999C9.44136 10.5862 9.98183 11.7482 10.6991 12.8ZM12.5191 4.79999C13.0188 4.21679 13.6301 3.73941 14.317 3.39594C15.004 3.05247 15.7527 2.84985 16.5191 2.79999C17.2416 2.80362 17.9559 2.95329 18.6191 3.23999C19.3342 3.53638 20.0067 3.92646 20.6191 4.39999C20.8791 4.59999 21.7991 5.71999 22.2791 6.09999C22.571 6.34638 22.9373 6.48728 23.3191 6.49999C23.7447 6.4637 24.1393 6.26279 24.4191 5.93999C24.8591 5.47999 25.7191 4.13999 25.9191 3.93999C26.3719 3.49237 26.9089 3.1389 27.4991 2.89999C28.142 2.66745 28.8162 2.53262 29.4991 2.49999C29.8792 2.48132 30.2594 2.53563 30.6191 2.65999C31.0072 2.80457 31.3713 3.00684 31.6991 3.25999C32.3372 3.7094 32.8538 4.31002 33.2029 5.00809C33.5519 5.70616 33.7224 6.47988 33.6991 7.25999C33.3602 9.92304 32.1835 12.4094 30.3391 14.36C29.4991 15.34 28.5791 16.36 27.6391 17.22C26.1991 18.62 24.6991 19.96 23.2591 21.22C23.1819 21.2856 23.1205 21.3676 23.0791 21.46C21.7591 20.6 20.4591 19.7 19.2191 18.72C17.8843 17.7731 16.6148 16.7374 15.4191 15.62C14.2451 14.4529 13.2053 13.1582 12.3191 11.76C11.7778 10.8675 11.3797 9.89569 11.1391 8.87999C11.0272 8.13001 11.0939 7.36423 11.3337 6.64487C11.5735 5.92551 11.9796 5.27287 12.5191 4.73999V4.79999Z" fill="#DE180F"/>
</g>
<defs>
<clipPath id="clip0_295_21143">
<rect width="48" height="48" fill="white"/>
</clipPath>
</defs>
</svg>
