<svg width="16" height="16" viewBox="0 0 16 16" fill="none" xmlns="http://www.w3.org/2000/svg">
<g clip-path="url(#clip0_537_4432)">
<path fill-rule="evenodd" clip-rule="evenodd" d="M7.88048 12.8267C6.61631 13.7678 5.27869 14.6061 3.88048 15.3334C3.37062 15.6227 2.82633 15.8467 2.26048 16C2.06563 16.0493 1.86016 16.0353 1.67381 15.96C1.60516 15.9175 1.55154 15.8546 1.52048 15.78C1.42485 15.5338 1.36208 15.276 1.33381 15.0134C1.18048 13.7334 1.10048 10.96 1.11381 8.18668C1.08919 5.898 1.19603 3.60979 1.43381 1.33335C1.46238 1.01902 1.55785 0.714425 1.71381 0.440018C1.9577 0.259537 2.25059 0.157258 2.55381 0.146685C4.44939 -0.0120549 6.35257 -0.0610256 8.25381 1.80975e-05C10.1516 0.0151317 12.0473 0.126385 13.9338 0.333351C14.164 0.358426 14.3889 0.419151 14.6005 0.513351C14.6514 0.537176 14.6967 0.571456 14.7334 0.613956C14.7702 0.656457 14.7976 0.706225 14.8138 0.760018C14.9671 1.20668 14.8138 4.76002 14.5805 8.27335C14.3871 10.94 14.1405 13.6534 13.9538 14.94C13.9274 15.2411 13.8461 15.5349 13.7138 15.8067C13.6621 15.8562 13.5998 15.8933 13.5317 15.9152C13.4636 15.9371 13.3913 15.9433 13.3205 15.9334C12.7119 15.8087 12.1283 15.5834 11.5938 15.2667C10.2837 14.5785 9.03858 13.7729 7.87381 12.86L7.88048 12.8267ZM14.1471 1.12002C14.0338 1.12002 13.8671 1.12002 13.7071 1.07335C12.4071 0.900018 9.54714 0.786685 6.98714 0.766685C5.50111 0.728165 4.01409 0.777139 2.53381 0.913351L2.26048 0.966685C2.18216 1.27271 2.13086 1.58502 2.10714 1.90002C2.00048 3.01335 1.86714 4.78002 1.80714 6.66668C1.70714 9.76002 1.70714 13.2067 1.84714 14.7867C1.84714 15.0934 2.02714 15.38 1.98714 15.4534C2.07972 15.4481 2.17141 15.4325 2.26048 15.4067C2.95634 15.1934 3.62695 14.905 4.26048 14.5467C5.48808 13.9162 6.65713 13.1777 7.75381 12.34C8.06714 12.0934 7.86048 12.46 10.7071 14.1134C11.434 14.5545 12.1967 14.9336 12.9871 15.2467C13.0805 15.2789 13.1764 15.3034 13.2738 15.32C13.2738 15.2067 13.3871 15.0134 13.4138 14.8C13.5871 13.56 13.7938 10.88 13.9471 8.20002C14.1336 5.82934 14.2003 3.45076 14.1471 1.07335V1.12002Z" fill="black"/>
</g>
<defs>
<clipPath id="clip0_537_4432">
<rect width="16" height="16" fill="white"/>
</clipPath>
</defs>
</svg>
