<svg width="34" height="18" viewBox="0 0 34 18" fill="none" xmlns="http://www.w3.org/2000/svg">
<g clip-path="url(#clip0_537_4436)">
<path d="M23.8852 3.39753C22.955 2.33899 21.7967 1.50546 20.4975 0.959795C19.1983 0.414135 17.7922 0.17059 16.3852 0.247527C14.9942 0.333548 13.6421 0.741432 12.4356 1.43904C11.2292 2.13664 10.2012 3.10491 9.43265 4.26753C8.70573 5.31408 8.24258 6.52086 8.08265 7.78503C7.91801 9.03834 7.99696 10.3117 8.31515 11.535C8.51332 12.408 8.85551 13.2419 9.32765 14.0025C9.66745 14.508 10.1063 14.9392 10.6177 15.27C10.6678 15.3024 10.7285 15.3142 10.7872 15.303C10.8458 15.2919 10.8979 15.2586 10.9327 15.21C10.9496 15.1855 10.9615 15.1578 10.9677 15.1286C10.9739 15.0994 10.9742 15.0693 10.9686 15.04C10.963 15.0107 10.9517 14.9827 10.9352 14.9579C10.9187 14.933 10.8975 14.9116 10.8727 14.895C10.3079 14.5138 9.84665 13.9984 9.53015 13.395C9.21825 12.7657 8.98403 12.1009 8.83265 11.415C8.56181 10.2545 8.51598 9.05281 8.69765 7.87503C8.86777 6.71784 9.31553 5.61904 10.0027 4.67253C10.7265 3.61668 11.6861 2.74376 12.8056 2.12284C13.9251 1.50192 15.1737 1.15004 16.4527 1.09503C17.7197 1.03737 18.9836 1.26409 20.1516 1.75854C21.3196 2.253 22.3621 3.00266 23.2027 3.95253C24.1894 5.0761 24.8422 6.45323 25.0874 7.92832C25.3326 9.40341 25.1603 10.9177 24.5902 12.3C23.5252 14.79 21.1027 16.7475 17.5177 17.13C16.8479 17.2063 16.1726 17.2214 15.5002 17.175C14.8414 17.1267 14.19 17.0059 13.5577 16.815C13.5256 16.8047 13.4919 16.8008 13.4584 16.8034C13.4249 16.8061 13.3922 16.8154 13.3622 16.8307C13.3018 16.8617 13.256 16.9154 13.2352 16.98C13.2143 17.0447 13.2199 17.115 13.2509 17.1755C13.2818 17.2359 13.3355 17.2816 13.4002 17.3025C14.0666 17.5214 14.7562 17.6624 15.4552 17.7225C16.1514 17.7824 16.8514 17.7824 17.5477 17.7225C21.4252 17.37 24.0577 15.2775 25.2427 12.6075C25.8987 11.0987 26.1192 9.43634 25.8793 7.80864C25.6394 6.18095 24.9486 4.65292 23.8852 3.39753Z" fill="#DE180F"/>
<path d="M14.7501 9.85501C15.2826 9.85501 15.9126 9.80251 16.5801 9.75751L16.6626 11.7675C16.6626 11.91 16.7826 13.32 16.8276 13.77V13.935C16.8276 14.6025 16.9476 14.925 17.0751 14.91C17.5926 15.2175 17.3001 13.05 17.3601 11.7675C17.3601 11.235 17.4126 10.7025 17.4201 10.17V9.69751C18.1026 9.63751 18.8001 9.57001 19.4751 9.52501C20.1446 9.48882 20.8156 9.48882 21.4851 9.52501C21.5186 9.5281 21.5524 9.52453 21.5845 9.51449C21.6167 9.50446 21.6465 9.48817 21.6723 9.46655C21.6981 9.44494 21.7193 9.41843 21.7349 9.38856C21.7504 9.35869 21.7598 9.32605 21.7626 9.29251C21.7668 9.25881 21.764 9.22462 21.7544 9.19205C21.7447 9.15948 21.7285 9.12925 21.7067 9.10322C21.6849 9.07719 21.658 9.05592 21.6276 9.04075C21.5972 9.02558 21.564 9.01682 21.5301 9.01501C20.386 8.8727 19.2325 8.82004 18.0801 8.85751H17.3976V8.58001C17.3476 7.8659 17.26 7.15491 17.1351 6.45001C17.0516 5.88395 16.9083 5.32835 16.7076 4.79251C16.5726 4.50751 16.6026 4.35751 16.4376 4.36501C16.4078 4.36397 16.3781 4.36907 16.3503 4.38001C16.3225 4.39094 16.2973 4.40748 16.2762 4.42858C16.2551 4.44969 16.2386 4.47491 16.2276 4.50269C16.2167 4.53046 16.2116 4.56018 16.2126 4.59001C16.2126 4.92751 16.2126 4.44001 16.3701 5.53501C16.4376 5.98501 16.4526 6.45001 16.4601 6.53251L16.5501 8.91001H16.3851C15.7626 8.95501 15.1851 9.03751 14.6901 9.09001C14.3676 9.13501 14.0301 9.16501 13.6926 9.19501L12.1926 9.27751C12.1611 9.27548 12.1295 9.2797 12.0996 9.28991C12.0697 9.30013 12.0421 9.31615 12.0184 9.33706C11.9947 9.35796 11.9754 9.38334 11.9615 9.41173C11.9477 9.44013 11.9395 9.47098 11.9376 9.50251C11.9323 9.55754 11.9467 9.61268 11.9783 9.65804C12.0099 9.7034 12.0566 9.73601 12.1101 9.75001C12.2122 9.76363 12.3156 9.76363 12.4176 9.75001L13.7376 9.82501C14.0676 9.86251 14.4201 9.87001 14.7501 9.85501Z" fill="#DE180F"/>
</g>
<defs>
<clipPath id="clip0_537_4436">
<rect width="18" height="18" fill="white" transform="translate(8)"/>
</clipPath>
</defs>
</svg>
