<svg width="37" height="37" viewBox="0 0 37 37" fill="none" xmlns="http://www.w3.org/2000/svg">
<path d="M1.15547 35.0422C1.74275 32.8127 3.0286 30.8299 4.82464 29.3842C5.92988 28.5741 7.21559 28.045 8.57089 27.8426C8.85539 30.1856 9.6843 32.4294 10.9913 34.3947C11.5148 35.0983 12.2276 35.6385 13.0465 35.9524C13.8654 36.2664 14.7566 36.341 15.6163 36.1676C16.4449 36.0382 17.2344 35.7263 17.9276 35.2544C18.6209 34.7824 19.2005 34.1623 19.6246 33.4388C19.9316 33.0197 20.1485 32.5415 20.2615 32.0344C20.3745 31.5273 20.3812 31.0023 20.2813 30.4925C20.1814 29.9827 19.9769 29.4991 19.6808 29.0722C19.3847 28.6453 19.0034 28.2844 18.5609 28.0122C16.3585 26.7009 13.8473 25.9986 11.2842 25.9772H9.98922C9.87282 25.0146 9.87282 24.0414 9.98922 23.0788C10.0514 21.9247 10.4705 20.8183 11.1885 19.9125C11.9065 19.0067 12.888 18.3462 13.9976 18.0222C14.0634 18.006 14.1253 17.977 14.1799 17.9368C14.2345 17.8967 14.2807 17.8462 14.3157 17.7882C14.3508 17.7302 14.3741 17.6659 14.3843 17.5989C14.3945 17.5319 14.3915 17.4636 14.3753 17.3978C14.3591 17.332 14.3301 17.27 14.2899 17.2154C14.2498 17.1608 14.1993 17.1147 14.1413 17.0796C14.0833 17.0446 14.019 17.0212 13.952 17.011C13.885 17.0008 13.8167 17.0039 13.7509 17.0201C12.4013 17.3457 11.1852 18.0803 10.269 19.1234C9.35283 20.1665 8.78128 21.4672 8.63256 22.8476C8.42016 23.944 8.34764 25.0629 8.41673 26.1776C6.77016 26.4797 5.22377 27.1841 3.91506 28.228C1.95094 29.9184 0.578846 32.1927 -0.000776291 34.7184C-0.024189 34.7923 -0.0323105 34.8701 -0.0246391 34.9473C-0.0169678 35.0244 0.00633621 35.0991 0.0438442 35.1669C0.0813522 35.2347 0.13228 35.2941 0.193525 35.3416C0.254768 35.3891 0.325043 35.4236 0.400057 35.443C0.475887 35.469 0.556246 35.4792 0.63616 35.4729C0.716072 35.4665 0.793839 35.4439 0.864651 35.4063C0.935461 35.3688 0.997808 35.3171 1.04783 35.2544C1.09786 35.1918 1.13449 35.1195 1.15547 35.0422ZM11.1763 27.7501C13.3575 27.8214 15.4827 28.459 17.343 29.6001C17.7675 29.9095 18.0559 30.3711 18.1478 30.8884C18.2398 31.4056 18.1281 31.9383 17.8363 32.3751C17.5609 32.8409 17.1859 33.24 16.7381 33.5439C16.2903 33.8477 15.7809 34.0487 15.2463 34.1326C14.7401 34.2384 14.2144 34.2023 13.7275 34.0282C13.2405 33.8541 12.8111 33.5487 12.4867 33.1459C11.2936 31.4999 10.4969 29.6005 10.1588 27.5959C10.4826 27.6422 10.7909 27.6576 11.1763 27.7501Z" fill="#DE180F"/>
<path d="M18.6846 17.4363H21.9375V21.5217C21.9511 22.3851 22.0335 23.246 22.1842 24.0963C22.2752 24.5773 22.4756 25.031 22.77 25.4221C22.9325 25.6432 23.151 25.8169 23.4031 25.9253C23.6551 26.0337 23.9315 26.0729 24.2038 26.0388C24.7139 25.9294 25.1805 25.672 25.545 25.2988C26.0792 24.8016 26.5644 24.2544 26.9942 23.6646C27.6112 22.8202 28.1774 21.9399 28.69 21.0284C30.8517 17.3774 32.7577 13.5809 34.3942 9.66629C35.5333 7.05245 36.4061 4.33052 36.9996 1.54171C37.0153 1.46575 37.0158 1.38743 37.0009 1.31129C36.9861 1.23515 36.9564 1.16271 36.9133 1.09818C36.8703 1.03364 36.8149 0.978288 36.7503 0.935335C36.6857 0.892381 36.6132 0.862681 36.5371 0.847957C35.3963 0.616707 36.3521 1.97337 33.2071 9.14212C31.4929 12.9449 29.5148 16.623 27.2871 20.1496C26.7907 20.993 26.2451 21.8064 25.6529 22.5855C25.2523 23.1298 24.7745 23.6128 24.2346 24.0192C24.0586 23.162 23.9708 22.2889 23.9725 21.4138V19.1013C23.9725 14.985 24.2038 13.9367 23.9725 12.6417C25.9387 11.6753 27.6459 10.2535 28.9521 8.49462C29.4608 8.21712 29.0908 7.24587 28.2275 7.70837C27.9192 7.86254 27.2717 8.17087 26.5008 8.61796C26.2667 8.74322 26.0402 8.88221 25.8225 9.03421C25.5016 9.25821 25.1975 9.50554 24.9129 9.77421C24.3271 10.3138 23.8183 10.8534 23.3713 11.3159C23.3004 11.1805 23.2179 11.0515 23.1246 10.9305C20.8983 9.71875 18.5784 8.68766 16.1871 7.84712C15.6329 7.63146 15.1134 7.33537 14.6454 6.96837C15.8778 6.40121 17.157 5.94212 18.4688 5.59629L26.47 3.68462C28.0117 3.26837 29.3992 2.92921 30.8638 2.62087C32.3283 2.31254 33.6696 2.09671 35.3346 1.81921C35.4695 1.79876 35.5908 1.72556 35.6718 1.61569C35.7527 1.50583 35.7867 1.3683 35.7663 1.23337C35.7458 1.09844 35.6726 0.977164 35.5627 0.89621C35.4529 0.815257 35.3154 0.781263 35.1804 0.801707C33.5 1.01754 32.0354 1.23337 30.6479 1.54171C29.2604 1.85004 27.7188 2.08129 26.1308 2.46671L18.0217 4.00837C17.4975 4.13171 16.9579 4.27046 16.48 4.44004C15.7246 4.67129 14.9383 4.93337 14.1983 5.19546C13.8018 5.2919 13.4186 5.43688 13.0575 5.62712C12.8224 5.79224 12.6488 6.03088 12.5642 6.30546C12.5006 6.62641 12.5211 6.95835 12.6238 7.26902C12.7264 7.57969 12.9077 7.85851 13.15 8.07837C14.6925 9.27124 16.4292 10.1891 18.2838 10.7917C17.5255 11.8217 16.8404 12.9035 16.2333 14.0292C15.8481 14.7071 15.6362 15.4697 15.6167 16.2492C15.7175 16.5306 15.898 16.7766 16.1362 16.9572C16.3743 17.1379 16.6598 17.2454 16.9579 17.2667C17.5285 17.366 18.1056 17.4227 18.6846 17.4363ZM18.885 15.6325C18.4379 15.5555 18.0371 15.4784 17.6979 15.4167V15.2471C17.8521 14.7692 18.0525 14.2142 18.2838 13.7055C18.6846 12.7034 19.1317 11.763 19.3783 11.285C19.8373 11.4811 20.2851 11.7024 20.7196 11.948L21.7833 12.5492C21.8983 12.8813 21.9557 13.2307 21.9529 13.5821V15.5863V16.2955C21.0742 16.0642 19.9025 15.833 18.885 15.6325Z" fill="#DE180F"/>
</svg>
