<svg width="14" height="15" viewBox="0 0 14 15" fill="none" xmlns="http://www.w3.org/2000/svg">
<path fill-rule="evenodd" clip-rule="evenodd" d="M6.82532 0.514311C6.72386 0.534681 6.60839 0.585529 6.50198 0.656691C6.40966 0.718445 6.32771 0.806729 5.81577 1.39595L5.2344 2.06508L5.14787 2.04479C3.63388 1.69005 3.55198 1.67248 3.40932 1.67176C3.15654 1.67049 2.96656 1.7484 2.78487 1.92785C2.65832 2.05284 2.57368 2.20858 2.54131 2.376C2.53015 2.43375 2.48891 2.8527 2.44968 3.307C2.41044 3.7613 2.37405 4.13683 2.36883 4.14149C2.36361 4.14616 2.01008 4.29732 1.58322 4.47742C1.15635 4.65751 0.769357 4.82694 0.723241 4.85393C0.548129 4.95639 0.406281 5.13546 0.341433 5.33591C0.294379 5.48138 0.288079 5.71002 0.327545 5.8404C0.365247 5.96493 0.387829 6.00521 0.854869 6.7808L1.2859 7.49659L0.832483 8.2529C0.356693 9.04653 0.319481 9.12021 0.300511 9.30635C0.289563 9.41359 0.313405 9.58875 0.353795 9.69792C0.418307 9.87232 0.583017 10.0664 0.742323 10.1557C0.784673 10.1794 1.16582 10.3455 1.58932 10.5247C2.01282 10.704 2.36361 10.8543 2.36883 10.8588C2.37407 10.8633 2.41047 11.2387 2.44974 11.693C2.48901 12.1473 2.53024 12.5663 2.54137 12.624C2.59107 12.8818 2.77496 13.1216 3.01032 13.2357C3.16354 13.3099 3.25234 13.3301 3.41632 13.3279C3.53416 13.3263 3.64268 13.3044 4.36832 13.1357C4.81877 13.031 5.19749 12.9422 5.2099 12.9383C5.22609 12.9333 5.38059 13.1028 5.75569 13.5372C6.04348 13.8704 6.31276 14.1789 6.35411 14.2228C6.44885 14.3234 6.57343 14.405 6.7072 14.4541C6.80142 14.4886 6.8293 14.4923 7.00032 14.4923C7.17135 14.4923 7.19922 14.4886 7.29344 14.4541C7.42028 14.4075 7.5455 14.3277 7.63228 14.2381C7.66801 14.2012 7.93489 13.897 8.22538 13.562C8.51585 13.2271 8.76144 12.9511 8.77114 12.9488C8.78083 12.9465 9.1597 13.0305 9.61304 13.1355C10.142 13.258 10.478 13.3291 10.5508 13.334C10.9862 13.3635 11.388 13.0415 11.4647 12.6016C11.4727 12.5562 11.5115 12.1473 11.551 11.693C11.5905 11.2387 11.6241 10.8657 11.6257 10.864C11.6273 10.8624 11.9704 10.7161 12.3881 10.5389C12.8058 10.3618 13.1926 10.1932 13.2476 10.1643C13.3637 10.1033 13.5083 9.96522 13.577 9.84983C13.7114 9.62404 13.7388 9.32878 13.648 9.08608C13.6326 9.04473 13.4164 8.67152 13.1676 8.2567L12.7153 7.50248L13.1685 6.74664C13.6447 5.95226 13.6799 5.88246 13.6995 5.69311C13.7107 5.58458 13.6875 5.412 13.6469 5.30209C13.5824 5.1277 13.4177 4.93366 13.2583 4.84433C13.216 4.82058 12.8348 4.65469 12.4113 4.47567C11.9878 4.29665 11.637 4.14632 11.6318 4.1416C11.6266 4.13687 11.5902 3.7613 11.5509 3.307C11.5116 2.8527 11.4704 2.43375 11.4593 2.376C11.4096 2.11824 11.2257 1.87839 10.9903 1.76433C10.8371 1.69007 10.7483 1.6699 10.5843 1.6721C10.4665 1.67367 10.3578 1.6956 9.63232 1.86422C9.18187 1.96891 8.80317 2.05774 8.79077 2.06162C8.77458 2.06666 8.6039 1.87955 8.18664 1.39932C7.59877 0.722743 7.54453 0.667933 7.38069 0.584983C7.23765 0.512547 6.99066 0.481131 6.82532 0.514311ZM6.41899 2.04241C6.03666 2.4827 5.81833 2.72295 5.76438 2.76271C5.59999 2.88391 5.43614 2.9375 5.23184 2.9369C5.11708 2.93656 5.01267 2.91558 4.25679 2.74097C3.79119 2.63341 3.40759 2.54806 3.40435 2.55131C3.40111 2.55456 3.36482 2.94012 3.3237 3.40811C3.2826 3.8761 3.2426 4.28885 3.23483 4.32532C3.18269 4.56997 3.0073 4.80082 2.78663 4.91524C2.73641 4.94127 2.35512 5.10603 1.93932 5.28138C1.52352 5.45672 1.18118 5.60191 1.17858 5.60401C1.17596 5.60611 1.37823 5.94733 1.62805 6.36228C1.93281 6.86846 2.0924 7.14712 2.11302 7.20908C2.17311 7.38966 2.17388 7.6081 2.11505 7.78478C2.09713 7.83859 1.91569 8.15522 1.63243 8.627C1.38278 9.0428 1.18276 9.38743 1.18796 9.39283C1.19315 9.39825 1.54388 9.55004 1.96735 9.73015C2.39084 9.91027 2.76252 10.0709 2.79332 10.0871C3.00142 10.1964 3.17165 10.4178 3.22839 10.6528C3.24009 10.7013 3.28316 11.1239 3.32406 11.5919C3.36497 12.0599 3.40097 12.4453 3.40406 12.4484C3.40714 12.4515 3.77499 12.3695 4.22149 12.2661C4.66799 12.1628 5.07742 12.0728 5.13132 12.0662C5.33606 12.0409 5.54715 12.0922 5.72427 12.2102C5.81986 12.2739 5.89296 12.3526 6.40689 12.9456C6.72344 13.3109 6.98877 13.6118 6.99649 13.6144C7.00422 13.617 7.27226 13.318 7.59214 12.95C8.06329 12.4081 8.19063 12.2697 8.26255 12.2218C8.43833 12.1045 8.61592 12.0552 8.8173 12.0678C8.90329 12.0732 9.18268 12.1318 9.7635 12.2664C10.2168 12.3714 10.591 12.454 10.5951 12.4499C10.5991 12.4459 10.636 12.0597 10.677 11.5918C10.718 11.1238 10.7588 10.7095 10.7676 10.671C10.8239 10.4263 10.9928 10.2058 11.2101 10.0934C11.2702 10.0623 11.6564 9.89379 12.0683 9.719C12.4803 9.54421 12.8191 9.39955 12.8212 9.39753C12.8234 9.39552 12.6209 9.05323 12.3712 8.6369C12.0739 8.14113 11.9068 7.84865 11.8871 7.78924C11.8275 7.61036 11.827 7.39128 11.8856 7.21523C11.9035 7.16141 12.085 6.84479 12.3682 6.373C12.6179 5.9572 12.8178 5.61254 12.8126 5.60708C12.8074 5.60162 12.4599 5.45159 12.0405 5.27368C11.621 5.09577 11.2422 4.9312 11.1986 4.90796C10.9844 4.7938 10.8097 4.55195 10.7599 4.3006C10.7552 4.27727 10.7178 3.87539 10.6766 3.40751C10.6355 2.93963 10.5994 2.55442 10.5965 2.55149C10.5936 2.54858 10.2258 2.63064 9.77924 2.73386C9.3327 2.83708 8.92322 2.92702 8.86932 2.93372C8.66485 2.95916 8.45351 2.90784 8.27638 2.78975C8.18115 2.72626 8.10544 2.64493 7.59112 2.05368C7.27311 1.68811 7.00836 1.38738 7.00277 1.38539C6.9972 1.3834 6.73449 1.67906 6.41899 2.04241ZM6.79486 3.84588C6.62523 3.89034 6.47919 3.98253 6.36941 4.11443C6.29419 4.20482 6.28233 4.22832 5.81941 5.204L5.56367 5.743L4.9205 5.75073C4.45011 5.75637 4.26227 5.76333 4.22132 5.7766C4.10035 5.81582 3.96818 5.89797 3.87011 5.99492C3.57045 6.29113 3.54771 6.75874 3.81693 7.08794C3.84255 7.11926 4.09994 7.35534 4.38892 7.61258C4.67789 7.8698 4.91432 8.08698 4.91432 8.09521C4.91432 8.10345 4.78888 8.39785 4.63557 8.74945C4.26075 9.60903 4.29316 9.51621 4.29216 9.733C4.29145 9.88878 4.29604 9.92865 4.32404 10.0097C4.46805 10.4267 4.94252 10.6612 5.35843 10.521C5.41345 10.5024 5.77476 10.3081 6.21828 10.0585C6.63901 9.82172 6.99093 9.628 7.00032 9.628C7.00972 9.628 7.36163 9.82172 7.78236 10.0585C8.22588 10.3081 8.5872 10.5024 8.64221 10.521C9.05813 10.6612 9.5326 10.4267 9.67661 10.0097C9.70469 9.92844 9.70917 9.88919 9.70825 9.733C9.70743 9.59704 9.70109 9.53507 9.68316 9.488C9.66997 9.45335 9.52921 9.12658 9.37037 8.76182C9.17104 8.30405 9.08557 8.09289 9.09446 8.08008C9.10153 8.06986 9.34551 7.84957 9.63661 7.59054C9.92772 7.33151 10.185 7.09335 10.2084 7.06129C10.325 6.90148 10.3846 6.69656 10.3698 6.50662C10.3542 6.30768 10.2746 6.13688 10.1308 5.99416C10.0251 5.88912 9.94324 5.83684 9.80732 5.7875C9.72684 5.75828 9.69643 5.75671 9.08107 5.75L8.43884 5.743L8.07893 4.98507C7.88098 4.56821 7.69541 4.195 7.66657 4.1557C7.4692 3.88683 7.11666 3.76153 6.79486 3.84588ZM6.68595 5.4315C6.20514 6.44697 6.20815 6.44107 6.13778 6.50592C6.10351 6.53752 6.04575 6.5771 6.0094 6.59388C5.94524 6.6235 5.92403 6.62461 5.28059 6.63169L4.61787 6.639L5.20766 7.164C5.76411 7.65931 5.80002 7.69414 5.8424 7.77975C5.88123 7.85819 5.88724 7.88474 5.88671 7.97575L5.88609 8.081L5.55632 8.837C5.37495 9.2528 5.22833 9.59521 5.23051 9.5979C5.23268 9.60061 5.5929 9.40117 6.03102 9.15472C6.46912 8.90828 6.85226 8.69977 6.88244 8.69139C6.95934 8.67004 7.05845 8.67231 7.13142 8.69707C7.16555 8.70866 7.54734 8.9172 7.97985 9.16047C8.41233 9.40375 8.76796 9.60059 8.77012 9.5979C8.77227 9.5952 8.62564 9.2528 8.44425 8.837L8.11447 8.081L8.1139 7.97575C8.11341 7.88486 8.11944 7.85809 8.15818 7.77975C8.20056 7.694 8.2356 7.66006 8.79386 7.164L9.38469 6.639L8.72801 6.63153C8.21825 6.62572 8.06036 6.61974 8.02232 6.6048C7.94539 6.57459 7.85627 6.50845 7.81416 6.45033C7.79295 6.42104 7.60329 6.03413 7.39269 5.59054C7.18208 5.14694 7.00591 4.784 7.00116 4.784C6.99642 4.784 6.85457 5.07539 6.68595 5.4315Z" fill="#DE180F"/>
</svg>
