<svg width="18" height="18" viewBox="0 0 18 18" fill="none" xmlns="http://www.w3.org/2000/svg">
<g clip-path="url(#clip0_537_4429)">
<path d="M17.8725 2.1C17.8652 1.73039 17.8301 1.36184 17.7675 0.9975C17.7439 0.865283 17.6781 0.74426 17.58 0.6525C17.4821 0.579285 17.3695 0.528115 17.25 0.5025C16.7245 0.404757 16.1935 0.339632 15.66 0.3075C13.59 0.135 10.1925 0 8.8275 0C8.4225 0 5.3475 0 3.075 0.075C2.40439 0.0980181 1.73573 0.160627 1.0725 0.2625C0.841805 0.291431 0.620994 0.373593 0.4275 0.5025C0.346576 0.581187 0.287184 0.679312 0.255 0.7875C0.163764 1.20681 0.111045 1.63359 0.0975 2.0625C0 3.8025 0 6.75 0 7.4025C0 8.055 0.0975 10.8675 0.195 12.57C0.195 13.1175 0.255 13.545 0.285 13.7475C0.295304 13.8499 0.331433 13.9479 0.39 14.0325C0.604053 14.207 0.865075 14.314 1.14 14.34C1.67614 14.394 2.21636 14.394 2.7525 14.34C3.33 14.2875 3.825 14.2425 4.2525 14.2425C5.4075 14.2425 5.31 14.5125 5.3475 14.6625C5.433 15.0756 5.433 15.5019 5.3475 15.915C5.23948 16.5191 4.98161 17.0864 4.5975 17.565C4.56753 17.6097 4.55084 17.662 4.54936 17.7158C4.54788 17.7696 4.56167 17.8228 4.58913 17.8691C4.6166 17.9154 4.65662 17.9529 4.70455 17.9774C4.75249 18.0019 4.80639 18.0124 4.86 18.0075C5.1534 18.0042 5.4454 17.9664 5.73 17.895C6.47916 17.7565 7.17656 17.4169 7.7475 16.9125C8.02894 16.6021 8.28008 16.2656 8.4975 15.9075C8.8725 15.315 9.0975 14.7675 9.3075 14.4675C9.44642 14.428 9.59064 14.4103 9.735 14.415C10.9725 14.415 13.875 14.5425 14.91 14.625C15.4569 14.6622 16.0056 14.6622 16.5525 14.625C16.8701 14.6245 17.1786 14.519 17.43 14.325C17.67 13.8002 17.7928 13.2295 17.79 12.6525C18 10.7025 18 7.395 18 6.75C18 6.105 17.955 3.57 17.8725 2.1ZM17.1225 11.895C17.1147 12.4671 17.0722 13.0381 16.995 13.605C16.995 13.695 16.9425 13.8 16.935 13.8375C16.8755 13.863 16.8121 13.8783 16.7475 13.8825C16.5413 13.9131 16.3334 13.9306 16.125 13.935C15.7603 13.9546 15.3947 13.9546 15.03 13.935C14.1225 13.8825 11.7975 13.8 10.38 13.8075C10.0169 13.7997 9.6537 13.8148 9.2925 13.8525C9.17956 13.8601 9.0731 13.908 8.9925 13.9875C8.7525 14.265 8.5125 14.9175 8.0775 15.6225C7.87555 15.938 7.64183 16.2321 7.38 16.5C6.80535 17.007 6.09239 17.3308 5.3325 17.43C5.65371 16.8608 5.84814 16.2288 5.9025 15.5775C6.075 13.59 4.905 13.7025 4.305 13.695C3.87 13.695 3.3525 13.695 2.7525 13.7775C2.32811 13.8097 1.90189 13.8097 1.4775 13.7775C1.24885 13.7846 1.02278 13.7275 0.825 13.6125L0.675 7.4025C0.675 6.87 0.675 5.0325 0.7575 3.4275C0.7575 2.595 0.84 1.8225 0.9075 1.3425C0.921275 1.23393 0.941309 1.12626 0.9675 1.02C1.065 1.02 1.2225 1.02 1.3575 0.9825C1.95 0.9 2.9025 0.8625 3.9225 0.84C6.0375 0.795 8.4675 0.84 8.82 0.84C9.84 0.84 12.015 0.93 13.905 1.0425C14.985 1.11 15.9675 1.185 16.59 1.26L16.9425 1.32C16.947 1.40744 16.947 1.49506 16.9425 1.5825C17.0625 2.8575 17.115 5.91 17.1075 6.7425C17.145 7.3125 17.1975 9.9375 17.13 11.895H17.1225Z" fill="black"/>
</g>
<defs>
<clipPath id="clip0_537_4429">
<rect width="18" height="18" fill="white"/>
</clipPath>
</defs>
</svg>
